<?xml version="1.0" standalone="no"?>
<!DOCTYPE svg PUBLIC "-//W3C//DTD SVG 20010904//EN"
 "http://www.w3.org/TR/2001/REC-SVG-20010904/DTD/svg10.dtd">
<svg version="1.0" xmlns="http://www.w3.org/2000/svg"
 width="300.000000pt" height="300.000000pt" viewBox="0 0 300.000000 300.000000"
 preserveAspectRatio="xMidYMid meet">
<metadata>
Created by potrace 1.11, written by Peter Selinger 2001-2013
</metadata>
<g transform="translate(0.000000,300.000000) scale(0.100000,-0.100000)"
fill="#000000" stroke="none">
<path d="M0 1500 l0 -1500 1500 0 1500 0 0 1500 0 1500 -1500 0 -1500 0 0
-1500z m880 656 c115 -19 170 -34 170 -49 0 -7 -12 -45 -27 -85 -31 -83 -25
-81 -128 -41 -51 20 -78 24 -180 24 -105 0 -125 -3 -161 -22 -82 -44 -121
-127 -95 -206 22 -66 81 -103 266 -169 216 -77 324 -147 374 -246 29 -57 46
-164 37 -235 -28 -219 -226 -330 -556 -314 -104 6 -296 38 -326 55 -8 5 -3 29
19 87 16 44 31 81 33 83 1 2 46 -11 101 -29 171 -56 348 -51 443 13 52 35 75
82 75 155 0 52 -4 67 -30 104 -38 53 -96 86 -276 155 -167 64 -229 98 -286
156 -65 66 -88 126 -88 228 0 73 4 93 28 142 81 165 320 241 607 194z m1590
-35 c187 -55 290 -168 337 -368 26 -111 25 -417 -1 -518 -43 -164 -124 -271
-250 -331 -108 -51 -208 -64 -487 -64 l-239 0 0 656 0 656 283 -5 c253 -4 290
-6 357 -26z m-920 -1181 l0 -100 -100 0 -100 0 0 100 0 100 100 0 100 0 0
-100z"/>
<path d="M2030 1494 l0 -496 163 4 c149 3 166 5 218 29 70 33 120 82 152 151
40 86 52 159 51 328 -1 209 -29 313 -105 389 -69 70 -150 91 -344 91 l-135 0
0 -496z"/>
</g>
</svg>
